HIERARCHY
ROOT Hips
{
	OFFSET 0.000000 83.214638 0.000000
	CHANNELS 6 Xposition Yposition Zposition Xrotation Yrotation Zrotation
	JOINT Pelvis
	{
		OFFSET 0.000000 0.000000 0.000000
		CHANNELS 3 Xrotation Yrotation Zrotation
		JOINT LeftUpLeg
		{
			OFFSET 8.479700 -4.795502 -0.379100
			CHANNELS 3 Xrotation Yrotation Zrotation
			JOINT LeftLeg
			{
				OFFSET 0.024144 -32.555107 0.112900
				CHANNELS 3 Xrotation Yrotation Zrotation
				JOINT LeftFoot
				{
					OFFSET -0.024144 -32.638630 -3.012600
					CHANNELS 3 Xrotation Yrotation Zrotation
					JOINT LeftToeBase
					{
						OFFSET 0.970200 -13.225400 11.864200
						CHANNELS 3 Xrotation Yrotation Zrotation
						End Site
						{
							OFFSET 0.000000 12.319262 0.000000
						}
					}
					JOINT LFootTongue
					{
						OFFSET 1.142400 -1.059800 6.665200
						CHANNELS 3 Xrotation Yrotation Zrotation
						End Site
						{
							OFFSET 0.000000 12.319262 0.000000
						}
					}
				}
				JOINT LeftPantLeg
				{
					OFFSET 0.918482 -16.533964 -2.284700
					CHANNELS 3 Xrotation Yrotation Zrotation
					End Site
					{
						OFFSET 0.350399 24.744368 0.000000
					}
				}
			}
		}
		JOINT RightUpLeg
		{
			OFFSET -8.479700 -4.795502 -0.379100
			CHANNELS 3 Xrotation Yrotation Zrotation
			JOINT RightLeg
			{
				OFFSET -0.023144 -32.555092 0.112900
				CHANNELS 3 Xrotation Yrotation Zrotation
				JOINT RightFoot
				{
					OFFSET 0.023144 -32.638641 -3.012700
					CHANNELS 3 Xrotation Yrotation Zrotation
					JOINT RightToeBase
					{
						OFFSET -0.970200 -13.225400 11.864200
						CHANNELS 3 Xrotation Yrotation Zrotation
						End Site
						{
							OFFSET 0.000000 12.319244 0.000000
						}
					}
					JOINT RFootTongue
					{
						OFFSET -1.142200 -1.059800 6.665200
						CHANNELS 3 Xrotation Yrotation Zrotation
						End Site
						{
							OFFSET 0.000000 12.319243 0.000000
						}
					}
				}
				JOINT RightPantLeg
				{
					OFFSET -0.919482 -16.533978 -2.284800
					CHANNELS 3 Xrotation Yrotation Zrotation
					End Site
					{
						OFFSET -0.350400 24.744419 0.000000
					}
				}
			}
		}
	}
	JOINT Spine
	{
		OFFSET 0.000000 7.722000 1.166200
		CHANNELS 3 Xrotation Yrotation Zrotation
		JOINT Spine1
		{
			OFFSET 0.000000 12.024101 0.248800
			CHANNELS 3 Xrotation Yrotation Zrotation
			JOINT Spine2
			{
				OFFSET 0.000000 11.502998 -0.491200
				CHANNELS 3 Xrotation Yrotation Zrotation
				JOINT Neck
				{
					OFFSET 0.000000 18.430702 -3.123100
					CHANNELS 3 Xrotation Yrotation Zrotation
					JOINT Head
					{
						OFFSET 0.000000 9.051102 1.034000
						CHANNELS 3 Xrotation Yrotation Zrotation
						JOINT HairB
						{
							OFFSET 0.208400 24.786102 24.822300
							CHANNELS 3 Xrotation Yrotation Zrotation
							End Site
							{
								OFFSET 0.000000 32.263779 0.000000
							}
						}
						JOINT HairA
						{
							OFFSET -7.081100 24.428299 23.196600
							CHANNELS 3 Xrotation Yrotation Zrotation
							End Site
							{
								OFFSET 0.000000 32.263779 0.000000
							}
						}
						JOINT Hat
						{
							OFFSET 16.728800 15.048294 -15.439601
							CHANNELS 3 Xrotation Yrotation Zrotation
							End Site
							{
								OFFSET 0.000000 32.263779 0.000000
							}
						}
					}
				}
				JOINT LeftShoulder
				{
					OFFSET 6.197800 13.665199 -4.064700
					CHANNELS 3 Xrotation Yrotation Zrotation
					JOINT LeftArm
					{
						OFFSET 7.778100 -0.187103 -1.709300
						CHANNELS 3 Xrotation Yrotation Zrotation
						JOINT LeftForeArm
						{
							OFFSET 22.049376 0.000000 0.000000
							CHANNELS 3 Xrotation Yrotation Zrotation
							JOINT LeftHand
							{
								OFFSET 23.009392 0.000000 0.000000
								CHANNELS 3 Xrotation Yrotation Zrotation
								JOINT LeftHandThumb1
								{
									OFFSET 3.507191 -2.063065 3.133727
									CHANNELS 3 Xrotation Yrotation Zrotation
									JOINT LeftHandThumb2
									{
										OFFSET 3.101337 -1.790558 1.790558
										CHANNELS 3 Xrotation Yrotation Zrotation
										JOINT LeftHandThumb3
										{
											OFFSET 3.058640 -1.765907 1.765906
											CHANNELS 3 Xrotation Yrotation Zrotation
											End Site
											{
												OFFSET -0.415260 3.926476 -0.049563
											}
										}
									}
								}
								JOINT LeftHandIndex1
								{
									OFFSET 11.334419 -0.901459 3.706815
									CHANNELS 3 Xrotation Yrotation Zrotation
									JOINT LeftHandIndex2
									{
										OFFSET 3.283112 0.000000 0.000000
										CHANNELS 3 Xrotation Yrotation Zrotation
										JOINT LeftHandIndex3
										{
											OFFSET 3.323853 0.000000 0.000000
											CHANNELS 3 Xrotation Yrotation Zrotation
											End Site
											{
												OFFSET -1.135597 3.097809 0.402452
											}
										}
									}
								}
								JOINT LeftHandMiddle1
								{
									OFFSET 11.335861 0.000000 0.000000
									CHANNELS 3 Xrotation Yrotation Zrotation
									JOINT LeftHandMiddle2
									{
										OFFSET 3.410492 0.000000 0.000000
										CHANNELS 3 Xrotation Yrotation Zrotation
										JOINT LeftHandMiddle3
										{
											OFFSET 3.312172 0.000000 0.000000
											CHANNELS 3 Xrotation Yrotation Zrotation
											End Site
											{
												OFFSET -1.150200 3.080154 0.400270
											}
										}
									}
								}
								JOINT LeftHandRing1
								{
									OFFSET 11.514786 -0.013176 -3.003090
									CHANNELS 3 Xrotation Yrotation Zrotation
									JOINT LeftHandRing2
									{
										OFFSET 3.053307 0.000000 0.000000
										CHANNELS 3 Xrotation Yrotation Zrotation
										JOINT LeftHandRing3
										{
											OFFSET 3.295807 0.000000 0.000000
											CHANNELS 3 Xrotation Yrotation Zrotation
											End Site
											{
												OFFSET -1.281006 3.013344 0.375733
											}
										}
									}
								}
								JOINT LeftHandPinky1
								{
									OFFSET 10.518692 -0.960396 -5.730441
									CHANNELS 3 Xrotation Yrotation Zrotation
									JOINT LeftHandPinky2
									{
										OFFSET 2.861649 0.000000 0.000000
										CHANNELS 3 Xrotation Yrotation Zrotation
										JOINT LeftHandPinky3
										{
											OFFSET 2.863380 0.000000 0.000000
											CHANNELS 3 Xrotation Yrotation Zrotation
											End Site
											{
												OFFSET -0.843597 2.711159 0.369971
											}
										}
									}
								}
							}
							JOINT LSleeve
							{
								OFFSET 6.676277 -0.344902 -1.011730
								CHANNELS 3 Xrotation Yrotation Zrotation
								End Site
								{
									OFFSET 0.000000 14.885353 0.000000
								}
							}
						}
					}
				}
				JOINT RightShoulder
				{
					OFFSET -6.197800 13.665199 -4.064700
					CHANNELS 3 Xrotation Yrotation Zrotation
					JOINT RightArm
					{
						OFFSET -7.778100 -0.187103 -1.709300
						CHANNELS 3 Xrotation Yrotation Zrotation
						JOINT RightForeArm
						{
							OFFSET -22.049376 0.000000 0.000000
							CHANNELS 3 Xrotation Yrotation Zrotation
							JOINT RightHand
							{
								OFFSET -23.009392 0.000000 0.000000
								CHANNELS 3 Xrotation Yrotation Zrotation
								JOINT RightHandThumb1
								{
									OFFSET -3.507191 -2.063065 3.133727
									CHANNELS 3 Xrotation Yrotation Zrotation
									JOINT RightHandThumb2
									{
										OFFSET -3.101337 -1.790558 1.790558
										CHANNELS 3 Xrotation Yrotation Zrotation
										JOINT RightHandThumb3
										{
											OFFSET -3.058640 -1.765907 1.765906
											CHANNELS 3 Xrotation Yrotation Zrotation
											End Site
											{
												OFFSET 0.415260 3.926476 -0.049563
											}
										}
									}
								}
								JOINT RightHandIndex1
								{
									OFFSET -11.334419 -0.901459 3.706815
									CHANNELS 3 Xrotation Yrotation Zrotation
									JOINT RightHandIndex2
									{
										OFFSET -3.283112 0.000000 0.000000
										CHANNELS 3 Xrotation Yrotation Zrotation
										JOINT RightHandIndex3
										{
											OFFSET -3.323853 0.000000 0.000000
											CHANNELS 3 Xrotation Yrotation Zrotation
											End Site
											{
												OFFSET 1.135597 3.097809 0.402452
											}
										}
									}
								}
								JOINT RightHandMiddle1
								{
									OFFSET -11.335861 0.000000 0.000000
									CHANNELS 3 Xrotation Yrotation Zrotation
									JOINT RightHandMiddle2
									{
										OFFSET -3.410492 0.000000 0.000000
										CHANNELS 3 Xrotation Yrotation Zrotation
										JOINT RightHandMiddle3
										{
											OFFSET -3.312172 0.000000 0.000000
											CHANNELS 3 Xrotation Yrotation Zrotation
											End Site
											{
												OFFSET 1.150200 3.080154 0.400270
											}
										}
									}
								}
								JOINT RightHandRing1
								{
									OFFSET -11.514786 -0.013176 -3.003090
									CHANNELS 3 Xrotation Yrotation Zrotation
									JOINT RightHandRing2
									{
										OFFSET -3.053307 0.000000 0.000000
										CHANNELS 3 Xrotation Yrotation Zrotation
										JOINT RightHandRing3
										{
											OFFSET -3.295807 0.000000 0.000000
											CHANNELS 3 Xrotation Yrotation Zrotation
											End Site
											{
												OFFSET 1.281006 3.013344 0.375733
											}
										}
									}
								}
								JOINT RightHandPinky1
								{
									OFFSET -10.518692 -0.960396 -5.730441
									CHANNELS 3 Xrotation Yrotation Zrotation
									JOINT RightHandPinky2
									{
										OFFSET -2.861649 0.000000 0.000000
										CHANNELS 3 Xrotation Yrotation Zrotation
										JOINT RightHandPinky3
										{
											OFFSET -2.863380 0.000000 0.000000
											CHANNELS 3 Xrotation Yrotation Zrotation
											End Site
											{
												OFFSET 0.843597 2.711159 0.369971
											}
										}
									}
								}
							}
							JOINT RSleeve
							{
								OFFSET -6.676277 -0.344902 -1.011730
								CHANNELS 3 Xrotation Yrotation Zrotation
								End Site
								{
									OFFSET 0.000000 14.885353 0.000000
								}
							}
						}
					}
				}
				JOINT Backpack
				{
					OFFSET 0.000000 -2.471497 36.677502
					CHANNELS 3 Xrotation Yrotation Zrotation
					End Site
					{
						OFFSET 0.000000 20.427315 0.000000
					}
				}
				JOINT Hood
				{
					OFFSET 0.000000 18.754097 -10.431000
					CHANNELS 3 Xrotation Yrotation Zrotation
					JOINT Hood1
					{
						OFFSET 0.000000 -5.011002 -7.685901
						CHANNELS 3 Xrotation Yrotation Zrotation
						End Site
						{
							OFFSET 0.000000 9.175140 0.000000
						}
					}
				}
				JOINT LHoodieString
				{
					OFFSET 5.250500 16.397697 3.089900
					CHANNELS 3 Xrotation Yrotation Zrotation
					JOINT LHoodieString1
					{
						OFFSET 0.257700 -6.364304 3.694600
						CHANNELS 3 Xrotation Yrotation Zrotation
						JOINT LHoodieString2
						{
							OFFSET 0.000000 -9.643799 2.679100
							CHANNELS 3 Xrotation Yrotation Zrotation
							End Site
							{
								OFFSET 0.000000 10.009018 0.000000
							}
						}
					}
				}
				JOINT RHoodieString
				{
					OFFSET -5.250500 16.397697 3.089900
					CHANNELS 3 Xrotation Yrotation Zrotation
					JOINT RHoodieString1
					{
						OFFSET -0.257700 -6.364304 3.694600
						CHANNELS 3 Xrotation Yrotation Zrotation
						JOINT RHoodieString2
						{
							OFFSET 0.000000 -9.643799 2.679100
							CHANNELS 3 Xrotation Yrotation Zrotation
							End Site
							{
								OFFSET 0.000000 10.009018 0.000000
							}
						}
					}
				}
			}
			JOINT LBackpack_Strap
			{
				OFFSET 15.223200 -7.719803 -6.610900
				CHANNELS 3 Xrotation Yrotation Zrotation
				End Site
				{
					OFFSET 0.000000 16.040596 0.000000
				}
			}
			JOINT RBackpack_Strap
			{
				OFFSET -15.223000 -7.719803 -6.610900
				CHANNELS 3 Xrotation Yrotation Zrotation
				End Site
				{
					OFFSET 0.000000 16.040596 0.000000
				}
			}
		}
	}
	JOINT BoyFacialAnim_Joint
	{
		OFFSET 1.000000 -82.208099 -1.550900
		CHANNELS 3 Xrotation Yrotation Zrotation
		End Site
		{
			OFFSET 0.000000 30.012791 0.000000
		}
	}
}
MOTION
Frames: 4
Frame Time: 0.033333
12.265175 137.687302 -1.241138 4.399668 35.880387 2.465209 -0.000000 0.000001 -0.000001 -13.845608 11.506394 -0.065867 7.112135 4.178002 -1.626826 9.611785 -8.119723 -21.597934 -0.000001 0.000000 -0.000001 -0.000001 0.000000 -0.000001 0.000000 0.000001 -0.000000 -17.876051 -4.735350 -6.958332 6.205190 3.748374 -1.385656 11.088611 -5.140775 -2.445373 -0.000000 0.000002 0.000000 -0.000000 0.000002 0.000000 -0.000000 0.000001 0.000000 3.529580 1.900406 -2.095864 4.482293 7.245345 4.026725 4.759994 7.064068 4.008487 -11.118040 -3.248286 -3.691234 -14.964639 -20.760410 -5.899689 -0.000000 0.000001 0.000000 -0.000000 0.000001 0.000000 -0.000000 0.000001 0.000000 -1.804124 3.325318 26.328322 -125.739685 -39.775491 -97.037119 0.000000 -58.550861 0.000003 -26.072603 -14.966130 11.964826 -1.540040 3.690190 6.142351 6.288856 14.839436 -5.711656 -0.000002 -0.000001 -0.000000 3.570702 6.035906 -61.184869 1.409850 4.179517 -37.267226 -0.000003 -0.000001 -0.000004 3.568994 6.034970 -61.168702 1.411014 4.181049 -37.283271 0.000006 0.000000 -0.000005 3.570696 6.035891 -61.184876 1.409837 4.179520 -37.267213 0.000000 0.000004 -0.000005 7.148346 7.992891 -61.111547 1.425204 0.113810 -37.677181 -0.000001 -0.000001 0.000001 -0.000000 0.000003 -0.000002 3.530149 13.176534 -19.242624 -48.223219 39.280814 -17.134849 0.000009 2.779616 0.000004 -92.232361 -15.236236 -45.758238 1.375966 -7.080773 14.563915 34.989372 -41.138622 4.436750 -0.000000 0.000001 -0.000001 7.113736 -6.946293 91.368055 2.529229 -5.367263 50.437470 -0.000003 -0.000002 -0.000000 7.113727 -6.946291 91.368042 2.529223 -5.367263 50.437474 0.000000 -0.000000 -0.000000 7.113720 -6.946256 91.368035 2.529212 -5.367266 50.437477 -0.000001 0.000001 0.000000 7.113715 -6.946254 91.368035 2.529223 -5.367280 50.437467 0.000001 -0.000000 0.000000 -0.000002 0.000000 -0.000001 -0.000000 0.000002 -0.000001 -0.000000 0.000002 -0.000001 -0.000000 0.000002 -0.000001 -0.000000 0.000002 -0.000001 -0.000000 0.000002 -0.000002 -0.000002 0.000000 -0.000000 -0.000000 0.000002 -0.000001 -0.000000 0.000002 -0.000002 -0.000002 0.000000 -0.000000 0.000000 0.000001 -0.000000 0.000000 0.000001 -0.000000 -0.000000 0.000001 -0.000001 
12.262480 137.684464 -1.269903 4.190407 35.916908 2.552900 -0.000000 0.000003 -0.000000 -13.831772 11.370075 -0.122213 7.420388 4.251921 -1.434078 9.385586 -7.915806 -21.829303 -0.000000 -0.000002 -0.000002 -0.000000 -0.000002 -0.000002 -0.000001 -0.000005 -0.000000 -17.762995 -4.715193 -6.859634 6.204989 5.601094 -1.482352 11.379941 -4.789384 -2.118791 -0.000000 0.000001 0.000000 -0.000000 0.000001 0.000000 0.000000 0.000003 -0.000000 3.457497 1.963240 -2.033805 4.403596 7.286174 4.111886 4.689196 7.100470 4.098743 -11.206180 -3.266039 -3.762501 -14.499788 -20.963001 -6.296778 -0.000000 -0.000000 -0.000000 -0.000000 -0.000000 -0.000000 -0.000000 -0.000000 -0.000000 -1.694099 3.012645 26.376876 -125.766309 -39.667761 -97.065656 -0.000002 -57.791078 -0.000000 -26.266981 -15.425899 11.206436 -1.540343 3.690346 6.142467 6.406363 15.351260 -5.635997 0.000001 -0.000000 -0.000000 3.560539 6.030333 -61.088174 1.474816 4.263344 -38.149841 -0.000003 -0.000001 -0.000004 3.558831 6.029397 -61.071993 1.476012 4.264852 -38.165905 -0.000001 -0.000001 -0.000000 3.560527 6.030305 -61.088160 1.474808 4.263327 -38.149834 -0.000001 0.000002 -0.000000 7.134827 7.993338 -61.014271 1.490595 0.197158 -38.555195 -0.000002 0.000001 0.000002 -0.000000 0.000001 -0.000000 3.505689 13.051826 -19.284527 -47.308130 38.955420 -17.162676 -0.000003 3.209805 -0.000002 -90.675754 -15.080743 -45.620360 1.289604 -6.860360 14.555111 35.096818 -41.249380 4.003089 -0.000001 0.000000 0.000000 6.863979 -6.947735 89.303392 2.334569 -5.201011 48.323971 0.000001 -0.000002 0.000002 6.863957 -6.947727 89.303385 2.334565 -5.201012 48.323974 0.000001 0.000002 -0.000002 6.863963 -6.947701 89.303392 2.334538 -5.201014 48.323967 -0.000000 -0.000003 -0.000000 6.863961 -6.947694 89.303392 2.334575 -5.201011 48.323967 -0.000001 -0.000002 -0.000000 -0.000004 -0.000002 0.000004 0.000002 0.000002 -0.000002 0.000002 0.000002 -0.000002 0.000002 0.000002 -0.000002 0.000002 0.000002 -0.000002 0.000002 0.000002 -0.000001 0.000001 0.000002 0.000001 0.000002 0.000002 -0.000002 0.000002 0.000002 -0.000001 0.000001 0.000002 0.000001 -0.000000 0.000001 0.000000 -0.000000 0.000001 0.000000 -0.000000 0.000003 -0.000000 
12.269745 137.658447 -1.288523 4.045885 35.971792 2.633640 -0.000000 0.000001 0.000001 -13.835929 11.347494 -0.131366 7.745137 4.417630 -1.426844 9.155778 -7.857979 -21.890104 -0.000000 -0.000000 -0.000000 -0.000000 -0.000000 -0.000000 -0.000000 -0.000002 -0.000000 -17.645193 -4.771086 -6.795402 6.231653 7.325069 -1.460061 11.289918 -4.789137 -2.157021 0.000001 -0.000001 -0.000000 0.000001 -0.000001 -0.000000 0.000000 0.000000 -0.000000 3.405554 1.976374 -1.980952 4.375600 7.237224 4.171334 4.665608 7.050279 4.155367 -11.368875 -3.255043 -3.839913 -14.101472 -21.074059 -6.513516 0.000000 -0.000000 -0.000001 0.000000 -0.000000 -0.000001 0.000000 -0.000000 -0.000001 -1.646188 2.885435 26.351425 -125.685439 -39.746824 -96.865326 -0.000001 -57.336699 0.000001 -26.245468 -15.680397 10.648225 -1.539639 3.689970 6.142203 6.505329 15.809214 -5.570619 -0.000001 -0.000002 0.000001 3.542711 6.020513 -60.918423 1.532006 4.334935 -38.912616 -0.000002 0.000000 -0.000002 3.541009 6.019560 -60.902263 1.533212 4.336421 -38.928677 0.000007 -0.000001 -0.000002 3.542713 6.020487 -60.918430 1.532003 4.334930 -38.912629 -0.000001 -0.000000 -0.000002 7.111070 7.994030 -60.843516 1.548128 0.268358 -39.313917 0.000000 -0.000000 -0.000002 -0.000000 0.000003 -0.000001 3.503460 13.033589 -19.391296 -46.833982 39.258937 -17.106721 -0.000001 2.526658 -0.000002 -89.881383 -14.905510 -44.166486 1.082470 -6.316808 14.603955 36.134310 -40.985178 4.800651 0.000000 0.000001 0.000000 6.635450 -6.941250 87.413512 2.317472 -5.185806 48.135219 0.000000 0.000000 0.000004 6.635437 -6.941243 87.413512 2.317464 -5.185819 48.135208 0.000000 0.000001 -0.000004 6.635439 -6.941227 87.413512 2.317463 -5.185813 48.135208 -0.000000 -0.000002 0.000000 6.635434 -6.941209 87.413519 2.317471 -5.185816 48.135215 -0.000000 -0.000001 0.000000 0.000001 0.000001 -0.000004 -0.000001 -0.000001 -0.000001 -0.000001 -0.000001 -0.000001 -0.000001 -0.000001 -0.000001 -0.000001 -0.000001 -0.000001 -0.000001 -0.000001 -0.000002 -0.000001 -0.000002 -0.000001 -0.000001 -0.000001 -0.000001 -0.000001 -0.000001 -0.000002 -0.000001 -0.000002 -0.000001 0.000001 0.000002 0.000000 0.000001 0.000002 0.000000 -0.000000 0.000001 0.000001 
12.282898 137.643616 -1.289316 3.979090 36.014836 2.677036 0.000000 0.000001 0.000000 -13.772552 11.341234 -0.138391 7.776581 4.105549 -1.475445 9.088070 -7.792023 -21.841424 0.000001 0.000001 -0.000000 0.000001 0.000001 -0.000000 -0.000000 0.000005 0.000000 -17.559076 -4.838178 -6.743977 6.301767 8.697153 -1.401095 11.042500 -4.853168 -2.324354 -0.000000 -0.000003 0.000000 -0.000000 -0.000003 0.000000 0.000000 0.000000 -0.000000 3.399925 1.961210 -1.913096 4.398486 7.151345 4.186319 4.687433 6.966196 4.164523 -11.564282 -3.225957 -3.858005 -13.857662 -21.025537 -6.503835 -0.000000 0.000000 0.000000 -0.000000 0.000000 0.000000 -0.000000 0.000000 0.000000 -1.674913 2.972198 26.308991 -125.491817 -39.877834 -96.474701 0.000001 -57.399079 0.000003 -26.010262 -15.576130 10.359068 -1.538812 3.689587 6.141930 6.585183 16.193627 -5.523822 0.000003 0.000001 -0.000001 3.509094 6.001796 -60.597391 1.573271 4.385425 -39.455407 0.000001 0.000000 -0.000000 3.507390 6.000836 -60.581230 1.574492 4.386913 -39.471496 0.000003 -0.000001 0.000002 3.509090 6.001767 -60.597397 1.573261 4.385408 -39.455407 -0.000001 0.000002 -0.000004 7.066161 7.995207 -60.520578 1.589633 0.318552 -39.853816 -0.000004 -0.000003 0.000001 0.000000 0.000003 -0.000001 3.511148 13.065158 -19.490874 -46.683633 39.905817 -17.136287 0.000009 1.359122 -0.000011 -89.407217 -15.218136 -42.503977 0.927746 -5.908626 14.655737 36.406592 -40.092148 5.715049 0.000000 -0.000002 -0.000000 6.532528 -6.935862 86.561562 2.348351 -5.213191 48.475844 0.000001 -0.000002 0.000001 6.532521 -6.935862 86.561590 2.348333 -5.213202 48.475844 0.000002 0.000004 -0.000001 6.532521 -6.935827 86.561562 2.348326 -5.213187 48.475847 -0.000002 0.000001 0.000002 6.532512 -6.935827 86.561583 2.348339 -5.213200 48.475840 0.000000 0.000001 -0.000001 0.000002 -0.000002 0.000001 0.000001 -0.000001 -0.000000 0.000001 -0.000001 -0.000000 0.000001 -0.000001 -0.000000 0.000001 -0.000001 -0.000000 0.000001 -0.000001 -0.000001 0.000001 0.000001 0.000001 0.000001 -0.000001 -0.000000 0.000001 -0.000001 -0.000001 0.000001 0.000001 0.000001 0.000000 -0.000000 0.000000 0.000000 -0.000000 0.000000 0.000000 0.000001 0.000000 
